<svg width="184" height="58" viewBox="0 0 184 58" fill="none" xmlns="http://www.w3.org/2000/svg">
<path d="M77.5068 23.9525C78.7064 23.0566 79.3175 21.7841 79.3175 20.1729C79.3175 19.1 79.0648 18.1777 78.5706 17.4361C78.1066 16.7434 77.469 16.2089 76.6693 15.8362C77.0654 15.5388 77.4049 15.1849 77.6841 14.7746C78.1745 14.0556 78.4234 13.1671 78.4234 12.1394C78.4234 10.5734 77.8199 9.3386 76.6316 8.47276C75.4998 7.64833 73.9079 7.23047 71.9123 7.23047H64.6127C64.2996 7.23047 64.0469 7.48269 64.0469 7.79515V24.6828C64.0469 24.9953 64.2996 25.2475 64.6127 25.2475H72.3952C74.636 25.2475 76.3562 24.8108 77.5068 23.9525ZM66.9667 9.83176H71.7916C73.0252 9.83176 73.9796 10.0539 74.6284 10.4943C75.2169 10.8934 75.5036 11.4919 75.5036 12.3314C75.5036 13.1558 75.2169 13.7506 74.6247 14.1572C73.9758 14.6052 73.0214 14.8311 71.7916 14.8311H66.9667V9.83176ZM66.9667 22.6462V17.4323H72.3725C73.7381 17.4323 74.7831 17.6582 75.4734 18.1024C76.0959 18.5015 76.3977 19.1301 76.3977 20.0261C76.3977 20.9371 76.0959 21.5771 75.4734 21.9761C74.7793 22.4203 73.7344 22.6462 72.3688 22.6462H66.9667Z" fill="#29338A"/>
<path d="M89.3639 24.5323C89.5412 24.4231 89.7072 24.3026 89.8656 24.1784V24.6829C89.8656 24.9953 90.1184 25.2475 90.4315 25.2475H92.0762C92.3893 25.2475 92.6421 24.9953 92.6421 24.6829V16.8188C92.6421 15.0043 92.129 13.6189 91.1143 12.6966C90.1146 11.7894 88.7075 11.3301 86.9269 11.3301C85.8707 11.3301 84.8521 11.4882 83.8977 11.8044C82.9282 12.1244 82.087 12.5837 81.3891 13.1785C81.1778 13.3592 81.1288 13.6641 81.2721 13.9013L82.0455 15.1812C82.1322 15.3242 82.2793 15.4221 82.4416 15.4485C82.6038 15.4748 82.7735 15.4259 82.9018 15.3167C83.362 14.9139 83.9392 14.5826 84.6107 14.3342C85.2859 14.0857 86.0065 13.9577 86.7572 13.9577C87.7946 13.9577 88.5679 14.1986 89.0621 14.6692C89.5563 15.1398 89.7939 15.8212 89.7939 16.7472V16.9543H86.3233C85.037 16.9543 83.9882 17.1387 83.196 17.5001C82.3737 17.8766 81.7701 18.3923 81.3966 19.0323C81.0345 19.6572 80.8496 20.3574 80.8496 21.1141C80.8496 21.9498 81.0684 22.699 81.5022 23.3465C81.9323 23.9902 82.551 24.4946 83.3507 24.8523C84.1203 25.1986 85.0332 25.3718 86.0593 25.3718C87.3645 25.368 88.4774 25.0857 89.3639 24.5323ZM83.6714 21.0652C83.6714 20.5833 83.8449 20.1918 84.1995 19.8643C84.4522 19.6346 85.0294 19.3598 86.3686 19.3598H89.7902V20.7602C89.511 21.4378 89.0923 21.9461 88.5189 22.3074C87.9115 22.6914 87.1721 22.8834 86.3196 22.8834C85.4368 22.8834 84.7578 22.7027 84.2938 22.3489C83.8713 22.0251 83.6714 21.6148 83.6714 21.0652Z" fill="#29338A"/>
<path d="M106.193 11.9813C105.333 11.5484 104.333 11.3301 103.217 11.3301C101.896 11.3301 100.735 11.6199 99.7612 12.1922C99.467 12.3653 99.1954 12.5611 98.9464 12.7757V12.0152C98.9464 11.7028 98.6936 11.4505 98.3805 11.4505H96.7358C96.4227 11.4505 96.1699 11.7028 96.1699 12.0152V24.6829C96.1699 24.9953 96.4227 25.2475 96.7358 25.2475H98.4522C98.7653 25.2475 99.0181 24.9953 99.0181 24.6829V18.0234C99.0181 17.1576 99.1803 16.4122 99.4972 15.8136C99.8103 15.2264 100.24 14.7897 100.814 14.4772C101.395 14.161 102.1 14.0029 102.904 14.0029C103.964 14.0029 104.752 14.2815 105.314 14.8574C105.873 15.4297 106.155 16.3143 106.155 17.4888V24.6791C106.155 24.9916 106.408 25.2438 106.721 25.2438H108.438C108.751 25.2438 109.004 24.9916 109.004 24.6791V17.3232C109.004 16.0094 108.755 14.8951 108.268 14.0104C107.774 13.1107 107.076 12.4293 106.193 11.9813Z" fill="#29338A"/>
<path d="M114.701 24.4645C115.773 25.0631 117.002 25.368 118.349 25.368C119.511 25.368 120.579 25.1346 121.522 24.6716C122.487 24.201 123.257 23.497 123.812 22.586C123.97 22.33 123.895 21.995 123.646 21.8256L122.363 20.956C122.106 20.7828 121.756 20.8468 121.578 21.1028C121.201 21.6449 120.733 22.0515 120.182 22.315C119.617 22.5823 118.99 22.7178 118.323 22.7178C117.523 22.7178 116.795 22.5371 116.161 22.1757C115.52 21.8143 115.029 21.3174 114.66 20.6623C114.29 20.0111 114.105 19.2281 114.105 18.3359C114.105 17.4399 114.294 16.6569 114.66 16.0094C115.026 15.3619 115.531 14.8537 116.161 14.4998C116.799 14.1384 117.527 13.9577 118.323 13.9577C118.99 13.9577 119.617 14.0932 120.182 14.3605C120.733 14.6203 121.201 15.0344 121.574 15.5878C121.657 15.712 121.79 15.7986 121.937 15.8249C122.084 15.8513 122.238 15.8212 122.363 15.7383L123.646 14.8687C123.895 14.6993 123.966 14.3681 123.815 14.1121C123.261 13.1822 122.487 12.4745 121.522 12.0115C120.579 11.5597 119.511 11.3301 118.353 11.3301C117.006 11.3301 115.78 11.6312 114.705 12.2223C113.626 12.8171 112.77 13.649 112.159 14.6993C111.547 15.7459 111.234 16.9731 111.234 18.3359C111.234 19.6836 111.544 20.9033 112.159 21.9611C112.77 23.0189 113.626 23.8584 114.701 24.4645Z" fill="#29338A"/>
<path d="M135.325 12.2373C134.269 11.635 133.047 11.3301 131.696 11.3301C130.361 11.3301 129.154 11.6312 128.105 12.2223C127.052 12.8171 126.211 13.649 125.6 14.6956C124.989 15.7421 124.676 16.9693 124.676 18.3321C124.676 19.6647 124.985 20.8807 125.596 21.9423C126.207 23.0076 127.052 23.8509 128.101 24.4532C129.15 25.0556 130.361 25.3605 131.696 25.3605C133.032 25.3605 134.246 25.0556 135.31 24.4532C136.378 23.8509 137.227 23.0076 137.83 21.9498C138.434 20.8957 138.739 19.676 138.739 18.3283C138.739 16.9618 138.434 15.7421 137.83 14.7031C137.227 13.6716 136.381 12.8397 135.325 12.2373ZM135.321 20.6586C134.959 21.3211 134.476 21.8181 133.854 22.1795C133.235 22.5371 132.507 22.7178 131.696 22.7178C130.9 22.7178 130.187 22.5371 129.576 22.1795C128.965 21.8218 128.471 21.3098 128.105 20.6548C127.735 19.996 127.547 19.2168 127.547 18.3359C127.547 17.4399 127.735 16.6569 128.101 16.0094C128.467 15.3619 128.965 14.8537 129.584 14.496C130.21 14.1347 130.908 13.9577 131.719 13.9577C132.515 13.9577 133.235 14.1384 133.854 14.496C134.476 14.8574 134.959 15.3506 135.321 16.0056C135.684 16.6569 135.868 17.4437 135.868 18.3359C135.868 19.2168 135.684 19.9998 135.321 20.6586Z" fill="#29338A"/>
<path d="M78.0224 34.09C76.5852 33.3333 74.8951 32.9531 73.0089 32.9531H66.1205C65.8074 32.9531 65.5547 33.2053 65.5547 33.5178V50.4055C65.5547 50.7179 65.8074 50.9702 66.1205 50.9702H73.0089C74.8989 50.9702 76.5852 50.5862 78.0224 49.8333C79.471 49.0728 80.6141 48 81.4251 46.6447C82.2324 45.2895 82.6398 43.7159 82.6398 41.9654C82.6398 40.2149 82.2324 38.6413 81.4251 37.2861C80.6141 35.9233 79.471 34.8504 78.0224 34.09ZM78.9014 45.2556C78.3431 46.1967 77.5547 46.9459 76.5474 47.4804C75.5327 48.0225 74.3066 48.2936 72.9108 48.2936H68.4707V35.6259H72.9108C74.3104 35.6259 75.5327 35.9008 76.5474 36.4391C77.5547 36.9736 78.3469 37.719 78.9014 38.6526C79.4597 39.59 79.7426 40.7005 79.7426 41.9579C79.7426 43.2039 79.4597 44.3107 78.9014 45.2556Z" fill="#29338A"/>
<path d="M94.117 37.9374C93.106 37.3501 91.9404 37.0527 90.654 37.0527C89.3789 37.0527 88.2132 37.3577 87.1872 37.9637C86.1611 38.5698 85.3425 39.4056 84.7577 40.4559C84.173 41.5024 83.875 42.7146 83.875 44.0623C83.875 45.4138 84.1843 46.6335 84.7955 47.6875C85.4066 48.7454 86.2705 49.5886 87.3569 50.1909C88.4358 50.7895 89.6996 51.0944 91.1142 51.0944C92.2007 51.0944 93.2117 50.9024 94.1246 50.5185C95.0526 50.1307 95.8372 49.5585 96.4559 48.8131C96.6332 48.5985 96.6294 48.2899 96.4484 48.0828L95.4826 46.9723C95.3732 46.848 95.2299 46.7878 95.0526 46.7765C94.8866 46.7765 94.7319 46.848 94.6263 46.9723C94.2038 47.4654 93.6945 47.8343 93.1136 48.0715C92.5175 48.3162 91.8611 48.4404 91.1633 48.4404C90.2805 48.4404 89.4883 48.256 88.8093 47.8908C88.1303 47.5257 87.6172 47.0363 87.24 46.3925C87.0212 46.0198 86.8665 45.6057 86.776 45.154H96.7954C97.1085 45.154 97.3613 44.9018 97.3613 44.5893C97.3613 44.5103 97.3651 44.435 97.3726 44.3635C97.3839 44.258 97.3877 44.1564 97.3877 44.0585C97.3877 42.6995 97.0972 41.4761 96.52 40.422C95.9391 39.3642 95.1318 38.5284 94.117 37.9374ZM86.7911 42.7447C86.8778 42.3494 87.0099 41.9805 87.1909 41.6455C87.5304 41.0093 87.9907 40.5312 88.5943 40.1773C89.1978 39.8272 89.892 39.6503 90.654 39.6503C91.4311 39.6503 92.1252 39.8272 92.7099 40.1735C93.306 40.5274 93.7624 41.0055 94.1095 41.6379C94.2981 41.9767 94.4339 42.3457 94.5207 42.7447H86.7911Z" fill="#29338A"/>
<path d="M102.04 31.9375H100.324C100.011 31.9375 99.7578 32.1897 99.7578 32.5022V50.4025C99.7578 50.715 100.011 50.9672 100.324 50.9672H102.04C102.353 50.9672 102.606 50.715 102.606 50.4025V32.5022C102.606 32.1935 102.353 31.9375 102.04 31.9375Z" fill="#29338A"/>
<path d="M122.698 41.9798C122.045 41.6335 121.325 41.3474 120.555 41.1253C119.819 40.9145 119.065 40.7187 118.318 40.5418C117.601 40.3724 116.934 40.1728 116.337 39.9583C115.802 39.7663 115.372 39.4952 115.059 39.1602C114.779 38.8628 114.644 38.4713 114.644 37.9555C114.644 37.4887 114.764 37.0859 115.017 36.717C115.266 36.3519 115.674 36.0507 116.228 35.8211C116.817 35.5764 117.59 35.4521 118.525 35.4521C119.227 35.4521 119.97 35.5575 120.732 35.7684C121.487 35.9754 122.207 36.3104 122.879 36.7547C123.018 36.8488 123.192 36.8751 123.354 36.8262C123.516 36.7772 123.648 36.6605 123.713 36.5062L124.316 35.0832C124.422 34.8385 124.339 34.5486 124.116 34.3981C123.392 33.8974 122.52 33.5021 121.532 33.2235C120.551 32.945 119.548 32.8057 118.548 32.8057C117.039 32.8057 115.772 33.0391 114.779 33.4983C113.765 33.9689 112.995 34.6089 112.497 35.3957C111.999 36.1824 111.743 37.0596 111.743 38.0007C111.743 39.0134 111.965 39.8529 112.41 40.5004C112.837 41.129 113.41 41.6373 114.104 42.0175C114.761 42.3751 115.489 42.665 116.27 42.8758C117.005 43.0753 117.76 43.2673 118.51 43.448C119.227 43.6174 119.887 43.8207 120.472 44.0428C121 44.2423 121.43 44.5171 121.747 44.8559C122.026 45.1533 122.162 45.5486 122.162 46.0606C122.162 46.4935 122.041 46.8775 121.792 47.2351C121.543 47.589 121.132 47.8826 120.574 48.1047C119.974 48.3419 119.171 48.4623 118.182 48.4623C117.145 48.4623 116.145 48.2779 115.21 47.909C114.278 47.5438 113.531 47.0958 112.991 46.5688C112.863 46.4446 112.682 46.3881 112.505 46.4144C112.327 46.4446 112.173 46.5575 112.094 46.7156L111.392 48.0897C111.282 48.3042 111.32 48.5678 111.49 48.7409C112.177 49.4449 113.146 50.0209 114.376 50.4575C115.583 50.8867 116.862 51.105 118.178 51.105C119.706 51.105 120.985 50.8716 121.981 50.4124C123.003 49.9418 123.777 49.3056 124.286 48.515C124.795 47.7245 125.052 46.8549 125.052 45.9288C125.052 44.9312 124.825 44.103 124.384 43.4593C123.969 42.8532 123.396 42.3525 122.698 41.9798Z" fill="#29338A"/>
<path d="M132.484 37.0527C131.427 37.0527 130.409 37.2108 129.454 37.5271C128.485 37.8471 127.644 38.3063 126.946 38.9011C126.735 39.0818 126.686 39.3867 126.829 39.6239L127.602 40.9038C127.689 41.0469 127.836 41.1448 127.998 41.1711C128.161 41.1975 128.33 41.1485 128.459 41.0394C128.919 40.6366 129.496 40.3053 130.167 40.0568C130.843 39.8084 131.567 39.6804 132.318 39.6804C133.355 39.6804 134.128 39.9213 134.623 40.3919C135.117 40.8624 135.354 41.5438 135.354 42.4699V42.6769H131.884C130.598 42.6769 129.549 42.8614 128.757 43.2228C127.934 43.5993 127.331 44.115 126.957 44.755C126.595 45.3799 126.41 46.0801 126.41 46.8367C126.41 47.6725 126.629 48.4216 127.063 49.0691C127.493 49.7128 128.112 50.2173 128.911 50.5749C129.681 50.9213 130.594 51.0944 131.62 51.0944C132.933 51.0944 134.045 50.8121 134.928 50.2625C135.106 50.1533 135.271 50.0328 135.43 49.9086V50.4131C135.43 50.7255 135.683 50.9777 135.996 50.9777H137.641C137.954 50.9777 138.206 50.7255 138.206 50.4131V42.5489C138.206 40.7344 137.693 39.3491 136.679 38.4268C135.671 37.512 134.264 37.0527 132.484 37.0527ZM135.351 46.4829C135.072 47.1643 134.653 47.6687 134.079 48.0301C133.476 48.4141 132.733 48.6061 131.88 48.6061C130.997 48.6061 130.318 48.4254 129.858 48.0715C129.432 47.744 129.232 47.3337 129.232 46.7803C129.232 46.2984 129.405 45.9069 129.76 45.5794C130.013 45.3498 130.59 45.0749 131.929 45.0749H135.351V46.4829Z" fill="#29338A"/>
<path d="M152.378 37.9344C151.337 37.3509 150.148 37.0535 148.847 37.0535C147.659 37.0535 146.565 37.3283 145.595 37.8742C145.229 38.0812 144.89 38.3221 144.577 38.6007V32.5022C144.577 32.1897 144.324 31.9375 144.011 31.9375H142.294C141.981 31.9375 141.729 32.1897 141.729 32.5022V50.4025C141.729 50.715 141.981 50.9672 142.294 50.9672H143.939C144.252 50.9672 144.505 50.715 144.505 50.4025V49.4727C144.829 49.7738 145.184 50.0336 145.569 50.2519C146.538 50.8053 147.64 51.0877 148.847 51.0877C150.148 51.0877 151.337 50.7865 152.378 50.1917C153.423 49.5969 154.253 48.7574 154.853 47.6996C155.445 46.6455 155.747 45.4183 155.747 44.0593C155.747 42.6815 155.445 41.4505 154.853 40.4039C154.257 39.3536 153.423 38.5217 152.378 37.9344ZM152.344 46.3782C151.971 47.0408 151.488 47.5415 150.861 47.9029C150.243 48.2605 149.526 48.4412 148.726 48.4412C147.927 48.4412 147.206 48.2605 146.576 47.8991C145.946 47.5377 145.463 47.0408 145.097 46.382C144.735 45.7232 144.55 44.9402 144.55 44.0593C144.55 43.1633 144.735 42.3803 145.097 41.729C145.459 41.074 145.946 40.5809 146.576 40.2195C147.202 39.8618 147.927 39.6774 148.726 39.6774C149.522 39.6774 150.243 39.8581 150.861 40.2157C151.48 40.5733 151.978 41.0815 152.344 41.729C152.714 42.3803 152.899 43.1633 152.899 44.0555C152.899 44.9402 152.714 45.7194 152.344 46.3782Z" fill="#29338A"/>
<path d="M167.08 37.9374C166.069 37.3501 164.903 37.0527 163.617 37.0527C162.342 37.0527 161.176 37.3577 160.15 37.9637C159.124 38.5661 158.305 39.4056 157.721 40.4559C157.136 41.5024 156.838 42.7146 156.838 44.0623C156.838 45.4138 157.147 46.6297 157.758 47.6875C158.369 48.7454 159.233 49.5886 160.32 50.1909C161.399 50.7895 162.662 51.0944 164.077 51.0944C165.164 51.0944 166.178 50.9024 167.087 50.5185C168.015 50.1307 168.8 49.5585 169.419 48.8131C169.596 48.6023 169.592 48.2899 169.411 48.0828L168.446 46.9723C168.336 46.848 168.181 46.7765 168.019 46.7765C167.853 46.7765 167.699 46.848 167.593 46.9723C167.17 47.4654 166.661 47.8343 166.08 48.0715C165.484 48.3162 164.828 48.4404 164.13 48.4404C163.247 48.4404 162.451 48.256 161.776 47.8908C161.097 47.5294 160.584 47.0363 160.207 46.3925C159.988 46.0198 159.833 45.6057 159.743 45.154H169.762C170.075 45.154 170.328 44.9018 170.328 44.5893C170.328 44.5103 170.332 44.435 170.339 44.3635C170.351 44.258 170.354 44.1564 170.354 44.0585C170.354 42.6995 170.064 41.4761 169.487 40.422C168.902 39.3642 168.095 38.5284 167.08 37.9374ZM159.75 42.7447C159.837 42.3494 159.969 41.9805 160.15 41.6455C160.49 41.0093 160.95 40.5312 161.553 40.1773C162.157 39.8272 162.851 39.6503 163.613 39.6503C164.39 39.6503 165.084 39.8272 165.669 40.1735C166.261 40.5274 166.722 41.0055 167.069 41.6379C167.257 41.9767 167.393 42.3457 167.48 42.7447H159.75Z" fill="#29338A"/>
<path d="M179.669 37.0527C178.33 37.0527 177.18 37.3351 176.259 37.896C175.984 38.0616 175.727 38.2536 175.497 38.4644V37.7379C175.497 37.4254 175.244 37.1732 174.931 37.1732H173.287C172.973 37.1732 172.721 37.4254 172.721 37.7379V50.4055C172.721 50.718 172.973 50.9702 173.287 50.9702H175.003C175.316 50.9702 175.569 50.718 175.569 50.4055V43.9418C175.569 42.6017 175.901 41.5664 176.553 40.8662C177.206 40.166 178.096 39.8272 179.281 39.8272C179.322 39.8272 179.364 39.831 179.402 39.8347C179.488 39.846 179.579 39.8498 179.666 39.8498C179.979 39.8498 180.232 39.5976 180.232 39.2851V37.6212C180.235 37.305 179.983 37.0527 179.669 37.0527Z" fill="#29338A"/>
<path d="M31.9778 45.2684C31.9552 45.2797 31.9326 45.2947 31.9062 45.306C31.9213 45.2835 31.9326 45.2609 31.9477 45.2383L31.9778 45.2684Z" fill="white"/>
<path d="M57.0096 36.2821C56.7682 33.9932 55.8703 32.0056 54.2972 30.3228C52.9731 28.9036 51.3359 27.9135 49.6119 27.074C46.6129 25.6209 43.5535 24.3033 40.5016 22.9632C39.4831 22.5152 38.4909 22.0145 37.7101 21.2127C36.8424 20.3205 36.3105 18.1747 36.8575 16.9023C37.2461 15.9913 37.9553 15.0953 38.7626 14.5269C41.3957 12.6634 43.6817 12.7462 46.6582 13.5933C47.986 13.9697 49.08 14.4215 50.1627 15.2835C51.1058 16.0327 52.1055 16.8797 53.0071 16.3602C54.4406 15.532 55.8062 13.8831 55.3045 12.3208C55.0555 11.5378 54.4406 11.0635 53.8257 10.5929C49.1593 7.01663 44.0175 6.10185 38.457 8.03681C35.2655 9.14735 32.8399 11.2367 31.3611 14.3198C30.6821 15.7315 30.4784 17.2373 30.3992 18.7958C30.2935 20.9153 30.6066 22.9142 31.6818 24.7513C32.0439 25.3649 32.225 25.9372 32.1722 26.6637C32.0854 27.8684 32.1269 29.0805 32.1345 30.2927C32.1382 30.6654 32.0666 30.8122 31.6591 30.6541C31.2215 30.4809 30.7613 30.3567 30.286 30.3153C30.0483 30.2965 29.871 30.161 29.7315 29.9577C29.0411 28.9714 28.2074 28.1243 27.1587 27.5145C26.8795 27.3526 26.8305 27.2397 27.0832 26.9799C28.2753 25.7527 28.9543 24.2431 29.3844 22.6168C30.037 20.136 29.9842 17.6175 29.5617 15.1217C29.0826 12.2832 27.6491 10.0395 25.0612 8.62032C23.209 7.60389 21.1983 7.13709 19.1084 7.09568C16.2301 7.03921 13.3442 7.1258 10.4659 7.05051C8.84374 7.0091 6.84437 8.11587 6.85946 9.74215C6.91227 16.1418 6.85946 22.3608 6.85946 28.7568C6.85946 35.2092 7.02922 41.319 7.03299 47.7714C7.03299 49.3149 8.65889 50.9412 10.2056 50.9412C13.2801 50.9449 16.3546 50.9374 19.4291 50.9449C20.259 50.9487 21.07 50.8207 21.8773 50.6739C22.4168 50.576 22.9562 50.5609 23.4919 50.7153C25.6497 51.344 27.8415 51.5999 30.0823 51.2574C32.3042 50.9186 34.3036 50.1054 35.8993 48.4754C36.1785 48.1893 36.3709 48.2156 36.6425 48.4415C37.5554 49.1982 38.5928 49.744 39.7207 50.1054C42.9197 51.1369 46.1602 51.2047 49.4045 50.3802C51.5585 49.8306 53.4522 48.7916 54.8292 46.9846C56.4136 44.9066 57.0964 42.5161 57.202 39.9412C57.251 38.7215 57.1379 37.5018 57.0096 36.2821ZM21.9377 48.1027C20.7645 48.3436 19.58 48.4264 18.3841 48.4227C15.7661 48.4114 13.148 48.4189 10.53 48.4189C9.36433 48.4189 9.07763 48.1366 9.07763 46.9583C9.07385 40.7882 9.07763 34.6144 9.07763 28.4443V10.1412C9.07763 9.96425 9.07008 9.79109 9.08517 9.61415C9.1493 8.77843 9.39451 8.5262 10.2357 8.5262C13.3631 8.52244 16.4941 8.4735 19.6177 8.57138C21.6359 8.63537 23.5485 9.21135 25.2234 10.4122C27.0002 11.6884 27.8302 13.5142 28.2036 15.5922C28.7167 18.457 28.3621 21.1976 26.9097 23.75C26.2609 24.8906 25.3404 25.7753 24.0917 26.2383C23.5711 26.4341 23.7145 26.8293 23.673 27.1832C23.6277 27.5672 23.8918 27.7065 24.1974 27.7855C25.5441 28.1469 26.74 28.7681 27.7283 29.7657C27.8302 29.8711 28.0301 29.9614 27.9471 30.1346C27.8868 30.2626 27.6981 30.2212 27.5586 30.2174C26.9437 30.2024 26.3325 30.2588 25.744 30.4395C25.2461 30.5901 24.8009 30.4998 24.3935 30.2325C22.7412 29.1332 20.8701 28.8245 18.95 28.7643C17.3165 28.7116 15.6831 28.7417 14.0496 28.753C12.8915 28.7605 11.9107 29.6527 11.8805 30.8122C11.8239 32.9316 11.8277 35.0548 11.8239 37.1743C11.8202 39.1732 11.839 41.1722 11.8428 43.1712C11.8428 44.0747 12.1446 44.8087 12.9556 45.2906C13.3178 45.5052 13.7252 45.5391 14.1175 45.5504C16.1697 45.5993 18.2144 45.7725 20.2703 45.4826C24.5142 44.8878 27.2417 42.358 27.4907 37.8142C27.5133 37.3776 27.5472 36.9371 27.5284 36.5042C27.5171 36.1503 27.6981 36.0299 27.9962 36.011C28.6299 35.9734 29.2561 36.0261 29.8673 36.2068C30.0974 36.2745 30.2294 36.3988 30.2294 36.6435C30.252 39.7605 29.7126 42.7006 27.5246 45.1137C26.0194 46.7738 24.0955 47.6585 21.9377 48.1027ZM17.9842 41.8159C18.0635 42.4936 18.1729 43.1636 18.3313 43.8262C18.3992 44.1048 18.3917 44.2365 18.0446 44.229C16.7469 44.2102 15.4454 44.229 14.1477 44.2139C13.5328 44.2064 13.2499 43.8714 13.2461 43.1749C13.2423 40.7769 13.2423 38.3752 13.2423 35.9772C13.2423 34.3848 13.2386 32.7886 13.2461 31.1962C13.2499 30.4207 13.5479 30.1233 14.3401 30.1195C15.9358 30.112 17.5353 30.0744 19.131 30.1308C20.5155 30.1798 21.8849 30.3944 23.2014 31.1322C22.3753 31.7157 21.6246 32.254 20.9644 32.9091C18.4633 35.3748 17.5806 38.3789 17.9842 41.8159ZM25.1178 37.3964C25.2348 37.2383 25.363 37.0915 25.5139 36.9785C25.7025 36.8392 26.2231 36.4665 26.2231 36.4665C26.2231 36.4665 26.1779 37.0952 26.1665 37.3136C26.0949 38.5784 25.9138 39.817 25.2838 40.9463C25.1405 41.2023 25.016 41.4734 24.6953 41.7331C24.2238 40.1671 24.1483 38.6801 25.1178 37.3964ZM31.2065 40.8146C31.38 39.9977 31.5045 38.3112 31.6101 37.355C32.0515 38.1681 32.5079 40.024 32.4287 40.7468C32.4476 41.91 31.9496 42.7571 31.165 43.6944C30.8179 44.1085 30.4218 44.4737 29.8522 44.564C29.7918 44.5753 29.7767 44.5678 29.7541 44.5829C29.7692 44.5603 29.7805 44.5377 29.7956 44.5189C30.3539 43.318 30.9311 42.1246 31.2065 40.8146ZM35.009 46.2506C33.6359 47.715 31.9081 48.4528 29.954 48.7389C28.3923 48.9685 26.8418 48.8594 25.2951 48.6184C25.2499 48.6109 25.2084 48.577 25.099 48.5168C25.4573 48.3173 25.7742 48.1592 26.076 47.9747C26.6155 47.6472 27.1474 47.3159 27.6114 46.8792C27.8264 46.6759 28.3659 46.2242 28.3659 46.2242C28.3659 46.2242 28.8034 46.243 29.06 46.2129C31.048 45.987 32.357 44.9066 33.0738 43.0733C33.1153 42.9641 33.1719 42.8549 33.2398 42.7044C33.7604 43.8149 34.3149 44.8614 35.0958 45.7649C35.2693 45.9607 35.1561 46.0924 35.009 46.2506ZM54.8292 43.0582C53.6107 46.0247 51.1963 47.4966 48.152 48.1065C47.1146 48.3135 46.0621 48.321 45.1303 48.37C42.9801 48.3587 40.9958 48.1102 39.136 47.2256C36.5746 46.0021 35.0845 43.8751 34.1263 41.2964C33.7151 40.1897 33.4473 38.4655 33.1907 37.9422C32.7494 36.2143 31.5233 35.1527 29.7654 34.8026C27.9471 34.4375 26.2458 34.6709 24.7481 35.8266C23.722 36.6209 23.2392 37.7277 23.0694 38.9812C22.911 40.1595 23.0053 41.3153 23.4542 42.4333C23.5674 42.7157 23.5334 42.9641 23.1939 43.1185C22.4206 43.4761 21.6548 43.845 20.8135 44.0295C19.9044 44.2252 19.9082 44.2403 19.6592 43.3669C18.9349 40.8033 19.0858 38.3262 20.3495 35.947C21.7453 33.3269 23.9333 31.8926 26.872 31.6028C29.3165 31.3618 31.6101 31.7948 33.7038 33.1538C35.7258 34.4676 36.9329 36.2971 37.4083 38.6424C38.0835 41.9515 39.9622 44.1876 43.3196 44.9819C45.9791 45.6106 48.4048 45.1363 50.3702 43.1034C51.6754 41.7557 52.1357 40.0955 52.1017 38.2585C52.0489 35.1866 50.2834 33.3232 47.7144 32.0206C44.8436 30.5638 41.8823 29.2989 38.9851 27.8985C37.4535 27.1569 35.9748 26.3249 34.7072 25.1692C30.9084 21.7021 30.8141 15.9499 34.5224 12.2079C36.5519 10.1638 39.0304 8.99677 41.8974 8.6429C46.2658 8.10081 50.0986 9.31299 53.4522 12.1176C54.052 12.6182 54.1049 13.0211 53.6333 13.6497C53.456 13.8869 53.2712 14.1203 53.075 14.3424C52.611 14.8694 52.2564 14.9146 51.7207 14.4779C50.0609 13.134 48.2011 12.2343 46.0848 11.8729C42.584 11.2705 39.3888 11.8616 36.8311 14.4591C34.4394 16.8872 34.4205 20.9981 37.9062 23.1966C39.6302 24.2845 41.5541 24.9358 43.3875 25.7903C45.7339 26.8858 48.152 27.842 50.4117 29.1219C53.0146 30.5939 54.8782 32.6418 55.478 35.6572C55.9797 38.1794 55.8062 40.6753 54.8292 43.0582ZM33.6396 26.1442C33.783 26.0576 33.8584 26.2044 33.9452 26.2797C34.7789 27.0063 35.6805 27.6425 36.6425 28.1883C36.8386 28.3013 36.9782 28.4255 36.9782 28.6702C36.9744 30.4696 36.9782 32.2691 36.9782 34.1965C35.9295 33.2065 34.9977 32.2729 33.8169 31.6555C33.6019 31.5425 33.5717 31.3355 33.5717 31.1134C33.5793 29.5549 33.5793 27.9926 33.5831 26.4341C33.5831 26.3362 33.534 26.2044 33.6396 26.1442ZM38.3438 32.8564C38.3438 31.8211 38.34 30.7896 38.3438 29.7544C38.3438 29.2161 38.4193 29.1521 38.9285 29.3817C40.0791 29.8974 41.2297 30.4245 42.3614 30.9779C44.1722 31.8625 46.0621 32.5891 47.7974 33.6168C49.2158 34.46 50.3513 35.5631 50.6229 37.2759C51.1209 40.4005 49.7025 43.1373 46.5714 43.7283C43.3498 44.3344 39.981 42.8022 38.9512 39.1996C38.6569 38.1719 38.4306 37.1253 38.3627 36.0675C38.2948 35.0021 38.3476 33.9292 38.3476 32.8601H38.3438V32.8564Z" fill="#29338A"/>
<path d="M13.8633 26.0446C15.791 26.1011 17.7225 26.1839 19.6426 25.879C22.6379 25.4009 24.6222 23.7859 25.4333 20.8383C25.9539 18.9522 25.7049 17.1039 25.1088 15.2705C24.6033 13.7195 23.5848 12.6655 22.106 12.0293C21.2648 11.6679 20.3745 11.4796 19.4691 11.3554C17.7187 11.122 15.9683 11.1521 14.2142 11.2387C12.543 11.3215 11.6829 12.161 11.6791 13.8475C11.6716 15.4588 11.6791 17.0737 11.6791 18.685C11.6791 20.3489 11.6716 22.0166 11.6829 23.6805C11.6905 25.0018 12.577 26.007 13.8633 26.0446ZM13.139 13.7497C13.1428 13.0269 13.4031 12.6542 14.1161 12.6429C16.2173 12.6052 18.3261 12.481 20.4009 12.9629C22.4568 13.441 23.7131 14.7021 24.0827 16.7914C24.328 18.1692 24.3091 19.5395 23.9054 20.8947C23.3924 22.6264 22.2041 23.6617 20.5254 24.1925C19.5823 24.4899 18.6166 24.6254 17.6282 24.6179C16.4512 24.6066 15.2742 24.6179 14.0972 24.6066C13.4295 24.599 13.1428 24.3092 13.139 23.6353C13.1315 21.9714 13.1353 20.3037 13.1353 18.6398C13.139 17.0097 13.1353 15.3797 13.139 13.7497Z" fill="#29338A"/>
</svg>
