<svg width="627" height="188" viewBox="0 0 627 188" fill="none" xmlns="http://www.w3.org/2000/svg">
<path d="M46.1399 76.0721C19.7157 97.3204 5.65275 127.216 7.10185 157.929C7.5987 168.451 9.87517 178.536 13.6816 188H627C626.239 181.659 624.413 174.775 621.334 167.306C607.309 133.275 504.068 140.14 408.647 159.516C337.84 173.894 297.064 141.326 245.093 99.8168C227.026 85.3866 207.606 69.8758 185.1 54.8809C134.107 20.9085 81.2588 47.8299 46.1399 76.0721Z" fill="#5227FF"/>
<path d="M300.084 116.789C291.555 119.656 283.159 122.477 274.94 125.114C232.121 140.421 170.65 136.59 134.646 104.272C117.403 88.7859 112.457 72.132 107.153 54.271C103.756 42.8342 100.212 30.9026 93.1995 18.4656C83.8874 1.9422 48.4322 -14.0268 32.4791 20.5176C24.5729 37.6423 27.6432 48.029 31.0082 59.4129C36.4226 77.7295 42.6002 98.6278 5.0461 154.329C-1.80336 164.487 -1.20849 176.452 4.00202 188H489.541C508.466 139.252 490.342 93.3274 446.911 88.7799C398.511 83.7066 347.245 100.938 300.084 116.789Z" fill="#E6472A"/>
</svg>
