<svg width="379" height="412" viewBox="0 0 379 412" fill="none" xmlns="http://www.w3.org/2000/svg">
<path fill-rule="evenodd" clip-rule="evenodd" d="M376.504 412C385.549 383.082 368.404 356.23 350.848 328.734C341.279 313.747 331.587 298.568 325.949 282.759C314.828 251.565 321.333 240.814 334.021 219.843C336.502 215.743 339.219 211.253 342.086 206.143C353.802 185.266 371.564 151.845 345.899 133.747C324.651 118.764 302.373 126.46 280.066 134.166C250.198 144.485 220.279 154.821 192.711 110.753C184.391 97.4526 180.484 80.2114 176.654 63.3098C167.885 24.6178 159.52 -12.2951 99.5466 3.91657C43.25 19.1358 51.7839 77.445 58.6771 124.543C59.9805 133.449 61.2254 141.955 61.962 149.692C66.7306 199.761 50.7024 232.233 32.6142 268.879C23.8893 286.555 14.685 305.203 7.10426 327.264C-3.69737 358.703 -2.25337 389.658 11.9284 412H376.504Z" fill="#E6472A"/>
</svg>
