<svg width="359" height="427" viewBox="0 0 359 427" fill="none" xmlns="http://www.w3.org/2000/svg">
<path fill-rule="evenodd" clip-rule="evenodd" d="M9.24466 427H334.939C359.617 405.167 365.068 366.466 352.217 327.003C345.037 304.959 336.32 286.326 328.057 268.664C310.926 232.048 295.746 199.602 300.262 149.572C300.96 141.841 302.138 133.343 303.373 124.444C309.901 77.3831 317.984 19.1205 264.666 3.91344C207.867 -12.2852 199.944 24.5981 191.639 63.2592C188.012 80.1474 184.311 97.3748 176.432 110.665C150.322 154.697 121.986 144.369 93.6986 134.059C72.5724 126.359 51.4734 118.669 31.3495 133.641C7.04213 151.723 23.8643 185.118 34.9604 205.979C37.6763 211.084 40.2493 215.571 42.5986 219.667C54.6157 240.621 60.7768 251.364 50.2442 282.533C44.9042 298.329 35.7253 313.496 26.662 328.472C7.13381 360.739 -11.8578 392.12 9.24466 427Z" fill="#E6472A"/>
</svg>
