<svg width="34" height="34" viewBox="0 0 34 34" fill="none" xmlns="http://www.w3.org/2000/svg">
<path opacity="0.25" fill-rule="evenodd" clip-rule="evenodd" d="M17.3473 32.9291C26.0467 32.9291 33.099 25.8768 33.099 17.1774C33.099 8.47803 26.0467 1.42578 17.3473 1.42578C8.64795 1.42578 1.5957 8.47803 1.5957 17.1774C1.5957 25.8768 8.64795 32.9291 17.3473 32.9291Z" stroke="#313131" stroke-width="1.35014"/>
<path d="M18.7816 13.1451H20.2293C20.3625 13.1451 20.4706 13.0432 20.4706 12.9177V11.5535C20.4706 11.428 20.3625 11.3262 20.2293 11.3262H18.7816C17.3185 11.3262 16.1275 12.448 16.1275 13.8272V15.4187H14.4385C14.3054 15.4187 14.1973 15.5205 14.1973 15.646V17.0102C14.1973 17.1357 14.3054 17.2376 14.4385 17.2376H16.1275V22.0122C16.1275 22.1377 16.2356 22.2395 16.3688 22.2395H17.8165C17.9497 22.2395 18.0578 22.1377 18.0578 22.0122V17.2376H19.7467C19.8505 17.2376 19.9427 17.1748 19.976 17.0821L20.4585 15.7179C20.4831 15.6488 20.4706 15.5724 20.4252 15.5128C20.3794 15.4537 20.307 15.4187 20.2293 15.4187H18.0578V13.8272C18.0578 13.4511 18.3825 13.1451 18.7816 13.1451Z" fill="#313131"/>
</svg>
