<svg width="34" height="34" viewBox="0 0 34 34" fill="none" xmlns="http://www.w3.org/2000/svg">
<path opacity="0.25" fill-rule="evenodd" clip-rule="evenodd" d="M17.3532 32.9291C26.0526 32.9291 33.1048 25.8768 33.1048 17.1774C33.1048 8.47803 26.0526 1.42578 17.3532 1.42578C8.65381 1.42578 1.60156 8.47803 1.60156 17.1774C1.60156 25.8768 8.65381 32.9291 17.3532 32.9291Z" stroke="#313131" stroke-width="1.35014"/>
<path fill-rule="evenodd" clip-rule="evenodd" d="M16.9036 9.52734C14.7035 9.52734 14.4276 9.53667 13.5636 9.57609C12.7014 9.61542 12.1125 9.75237 11.5972 9.95264C11.0645 10.1596 10.6128 10.4366 10.1624 10.887C9.71202 11.3374 9.43502 11.7891 9.22803 12.3218C9.02776 12.8371 8.89081 13.426 8.85148 14.2882C8.81206 15.1523 8.80273 15.4281 8.80273 17.6282C8.80273 19.8282 8.81206 20.1041 8.85148 20.9682C8.89081 21.8304 9.02776 22.4193 9.22803 22.9345C9.43502 23.4672 9.71202 23.919 10.1624 24.3694C10.6128 24.8197 11.0645 25.0967 11.5972 25.3038C12.1125 25.504 12.7014 25.6409 13.5636 25.6803C14.4276 25.7197 14.7035 25.729 16.9036 25.729C19.1036 25.729 19.3795 25.7197 20.2435 25.6803C21.1058 25.6409 21.6947 25.504 22.2099 25.3038C22.7426 25.0967 23.1944 24.8197 23.6448 24.3694C24.0951 23.919 24.3721 23.4672 24.5791 22.9345C24.7794 22.4193 24.9163 21.8304 24.9557 20.9682C24.9951 20.1041 25.0044 19.8282 25.0044 17.6282C25.0044 15.4281 24.9951 15.1523 24.9557 14.2882C24.9163 13.426 24.7794 12.8371 24.5791 12.3218C24.3721 11.7891 24.0951 11.3374 23.6448 10.887C23.1944 10.4366 22.7426 10.1596 22.2099 9.95264C21.6947 9.75237 21.1058 9.61542 20.2435 9.57609C19.3795 9.53667 19.1036 9.52734 16.9036 9.52734ZM16.9031 10.9869C19.0661 10.9869 19.3223 10.9952 20.1765 11.0342C20.9664 11.0702 21.3953 11.2021 21.6807 11.3131C22.0589 11.46 22.3287 11.6356 22.6122 11.9191C22.8957 12.2025 23.0712 12.4724 23.2182 12.8505C23.3291 13.136 23.4611 13.5649 23.4971 14.3547C23.5361 15.2089 23.5443 15.4651 23.5443 17.6282C23.5443 19.7912 23.5361 20.0474 23.4971 20.9016C23.4611 21.6914 23.3291 22.1203 23.2182 22.4058C23.0712 22.7839 22.8957 23.0538 22.6122 23.3372C22.3287 23.6207 22.0589 23.7963 21.6807 23.9432C21.3953 24.0542 20.9664 24.1861 20.1765 24.2221C19.3225 24.2611 19.0663 24.2694 16.9031 24.2694C14.7399 24.2694 14.4838 24.2611 13.6297 24.2221C12.8398 24.1861 12.4109 24.0542 12.1255 23.9432C11.7473 23.7963 11.4775 23.6207 11.194 23.3372C10.9106 23.0538 10.735 22.7839 10.588 22.4058C10.4771 22.1203 10.3451 21.6914 10.3091 20.9016C10.2701 20.0474 10.2619 19.7912 10.2619 17.6282C10.2619 15.4651 10.2701 15.2089 10.3091 14.3547C10.3451 13.5649 10.4771 13.136 10.588 12.8505C10.735 12.4724 10.9105 12.2025 11.194 11.9191C11.4775 11.6356 11.7473 11.46 12.1255 11.3131C12.4109 11.2021 12.8398 11.0702 13.6297 11.0342C14.4839 10.9952 14.7401 10.9869 16.9031 10.9869ZM12.7442 17.6282C12.7442 15.3308 14.6066 13.4683 16.9041 13.4683C19.2015 13.4683 21.0639 15.3308 21.0639 17.6282C21.0639 19.9257 19.2015 21.7881 16.9041 21.7881C14.6066 21.7881 12.7442 19.9257 12.7442 17.6282ZM16.9036 20.3285C15.4122 20.3285 14.2033 19.1195 14.2033 17.6282C14.2033 16.1369 15.4122 14.9279 16.9036 14.9279C18.3949 14.9279 19.6039 16.1369 19.6039 17.6282C19.6039 19.1195 18.3949 20.3285 16.9036 20.3285ZM21.2282 14.276C21.765 14.276 22.2003 13.8408 22.2003 13.3039C22.2003 12.767 21.765 12.3318 21.2282 12.3318C20.6913 12.3318 20.2561 12.767 20.2561 13.3039C20.2561 13.8408 20.6913 14.276 21.2282 14.276Z" fill="#313131"/>
</svg>
