<svg width="34" height="34" viewBox="0 0 34 34" fill="none" xmlns="http://www.w3.org/2000/svg">
<path opacity="0.25" fill-rule="evenodd" clip-rule="evenodd" d="M17.3415 32.9291C26.0409 32.9291 33.0931 25.8768 33.0931 17.1774C33.0931 8.47803 26.0409 1.42578 17.3415 1.42578C8.64209 1.42578 1.58984 8.47803 1.58984 17.1774C1.58984 25.8768 8.64209 32.9291 17.3415 32.9291Z" stroke="#313131" stroke-width="1.35014"/>
<path d="M13.726 13.9968C14.4634 13.9968 15.0613 13.399 15.0613 12.6615C15.0613 11.924 14.4634 11.3262 13.726 11.3262C12.9885 11.3262 12.3906 11.924 12.3906 12.6615C12.3906 13.399 12.9885 13.9968 13.726 13.9968Z" fill="#313131"/>
<path d="M14.8387 14.8887H12.6132C12.4903 14.8887 12.3906 14.9884 12.3906 15.1112V21.7879C12.3906 21.9107 12.4903 22.0105 12.6132 22.0105H14.8387C14.9616 22.0105 15.0613 21.9107 15.0613 21.7879V15.1112C15.0613 14.9884 14.9616 14.8887 14.8387 14.8887Z" fill="#313131"/>
<path d="M21.4712 14.5174C20.52 14.1915 19.3302 14.4777 18.6167 14.991C18.5922 14.8953 18.5049 14.824 18.4012 14.824H16.1757C16.0528 14.824 15.9531 14.9237 15.9531 15.0466V21.7233C15.9531 21.8461 16.0528 21.9458 16.1757 21.9458H18.4012C18.5241 21.9458 18.6238 21.8461 18.6238 21.7233V16.925C18.9834 16.6152 19.4468 16.5164 19.826 16.6775C20.1937 16.8328 20.4042 17.2121 20.4042 17.7173V21.7233C20.4042 21.8461 20.5039 21.9458 20.6268 21.9458H22.8523C22.9752 21.9458 23.0749 21.8461 23.0749 21.7233V17.269C23.0495 15.4401 22.1891 14.7631 21.4712 14.5174Z" fill="#313131"/>
</svg>
