<svg width="447" height="292" viewBox="0 0 447 292" fill="none" xmlns="http://www.w3.org/2000/svg">
<path fill-rule="evenodd" clip-rule="evenodd" d="M89.8424 0C85.4161 4.19145 80.9514 8.80313 76.3926 13.8968C68.9785 22.1828 61.3945 28.3999 53.9828 34.4757C32.056 52.4504 11.6373 69.1887 1.58784 134.605C-5.25926 179.185 9.79817 247.174 51.4307 281.327C77.851 303 118.608 289.987 127.012 257.421C131.715 239.202 133.703 219.338 135.656 199.828C141.286 143.59 146.623 90.2871 215.808 87.7699C229.453 87.2738 254.186 94.2658 282.553 102.285C359.074 123.918 462.041 153.027 445.162 62.7963C435.724 12.3471 391.267 2.07526 346.804 0H89.8424Z" fill="#5227FF"/>
</svg>
