<svg width="736" height="433" viewBox="0 0 736 433" fill="none" xmlns="http://www.w3.org/2000/svg">
<path d="M713.833 257.022C613.616 205.017 713.825 165.86 733.5 109.373C757.731 39.7674 545.808 13.1228 466.352 7.073C338.394 14.0134 406.362 78.3226 419.382 150.413C435.395 239.075 295.43 305.18 396.726 391.788C442.605 431.015 539.398 456.608 603.885 398.965C644.854 362.336 769.636 285.978 713.833 257.022Z" fill="#5227FF"/>
<path d="M1.59382 0C-0.117084 9.80279 -0.493347 21.7276 0.673367 36.2376C10.469 158.062 122.063 139.574 189.574 120.382C211.181 114.239 234.804 99.383 258.988 84.1741C310.365 51.8637 364.274 17.9617 406.759 62.6348C440.945 98.5808 446.687 142.39 448.816 158.638C449.268 162.087 449.557 164.295 449.921 164.921C450.372 165.698 449.82 168.63 449.014 172.902C446.11 188.309 439.917 221.156 465.655 233.315C509.254 253.91 552.121 249.2 590.285 220.838C616.146 201.619 619.849 181.674 624.933 154.288C626.82 144.125 628.897 132.937 632.367 120.382C643.671 79.4837 633.394 37.4291 611.256 0H1.59382Z" fill="#E6472A"/>
</svg>
